<?xml version="1.0" encoding="utf-8"?>
<!-- Generator: Adobe Illustrator 22.0.0, SVG Export Plug-In . SVG Version: 6.00 Build 0)  -->
<svg id="icon4" version="1.1" xmlns="http://www.w3.org/2000/svg" xmlns:xlink="http://www.w3.org/1999/xlink" x="0px" y="0px"
	 viewBox="0 0 275.5 275.5" style="enable-background:new 0 0 275.5 275.5;" xml:space="preserve">
<style type="text/css">
	.st0{fill:#414159;}
	.st1{fill:#666689;}
	.st2{fill:#E0E0E0;}

	#icon4:hover .st0{ fill: #74749b; }
	#icon4:hover .st1{ fill: #9b9bc4; }
	#icon4:hover .st2{ fill: #fcfcfc; }

</style>
<g id="gear">
	<polygon class="st0" points="52.5,71.5 67,55.5 52.5,33.5 73.5,14.5 97,38.5 115.5,35 120,0 151.5,0 154.5,35.8 173.5,39.5 
		194.5,13.5 218.5,29.5 203.5,55 218.5,71.5 244,58 261,79 236,99 239.5,119.5 275.5,119.5 275.5,152.5 242,152.5 235,175.5 
		260,194.5 240.5,220.5 218,204.5 203.5,223.5 218.5,241 195.5,265 174.5,242.5 156,245 156,275.5 116.5,275.5 114.5,245.5 99,240 
		82,266.5 52.5,246.5 69,222 55,209.5 31.5,224.5 10,201 35,181 34,157.5 0,157 0,122.5 37.5,123 40,102 11.5,85 27.5,57 	"/>
</g>
<g id="second">
	<path class="st1" d="M73.8,109.5c0,0,14-20.5,23-22.5c0,0,29.8-22,72.9-5c0,0,34.6,19.5,32.6,69.5c0,0-11,48.5-48.5,56
		c0,0-48,11.5-69.5-22c0,0-28.5-34-11-73.5"/>
</g>
<g id="center">
	<path class="st2" d="M109.6,114.6c0,0,26.5-23,55.5,6c0,0,12.5,34-10.5,50c0,0-31.5,14-45-8C109.6,162.6,91.6,139.6,109.6,114.6z"
		/>
</g>
</svg>
