<?xml version="1.0" encoding="utf-8"?>
<!-- Generator: Adobe Illustrator 22.0.0, SVG Export Plug-In . SVG Version: 6.00 Build 0)  -->
<svg id="icon1" version="1.1" xmlns="http://www.w3.org/2000/svg" xmlns:xlink="http://www.w3.org/1999/xlink" x="0px" y="0px"
	 viewBox="0 0 235.3 292.6" style="enable-background:new 0 0 235.3 292.6;" xml:space="preserve">
<style type="text/css">
	.st0{fill:#CE3052;}
	.st1{fill:#AD2828;}
	.st2{fill:#BA946E;}
	.st3{fill:#4C3320;}

	#icon1:hover .st0{ fill: #ed5c7b; }
	#icon1:hover .st1{ fill: #e84545; }
	#icon1:hover .st2{ fill: #f9cc9f; }
	#icon1:hover .st3{ fill: #a37049; }

</style>
<g id="Layer_4">
	<path class="st0" d="M86.3,131.3l-14,2.7c0,0-67,42.3-72.3,102v9.3l1.7,7.7c0,0,39.3,41,107.7,39.7l26,0h18c0,0,82.3-8.7,82-56.7
		l0-21c0,0-23-59.7-69.3-80l-57-7.7L86.3,131.3z"/>
</g>
<g id="Layer_5">
	<polygon class="st1" points="95.5,134.6 120.9,237.3 147.9,128.6 	"/>
</g>
<g id="Layer_3">
	<path class="st2" d="M59,70.2c0,0,13.5,83,56.7,87.3h7.8h5c0,0,40-3.3,47.8-80.3l-15-20l-34.8-2.8l-32.3,5.8L59,70.2z"/>
</g>
<g id="Layer_2">
	<path class="st3" d="M60.5,76.7l-9.8-6l-3.5-4.3l6.6-1.5c0,0-1.6-8.2-1.9-9.2s-3-6.3-3-6.3l-1.8-3.3h2.5l4.1,2l2.1,0.3l1.3-2.3
		l1-5.8v-6.5l-1.8-3.3h2h3.3l4.5-1.3v-2.8l-1.5-2.3c0,0-0.8-1-1.5-1.8c-0.8-0.8,3-1.5,3-1.5H70c0,0,0.8,3.8,2.3,0s2.8-7.5,2.8-7.5
		l2-7.5c1.3,2.5,2.8,4.3,2.8,4.3l2.3,1.5h3.3l4.3-2l2.3-2c0,0,3.5,1,4.8,1.5s4.8-0.8,4.8-0.8l6.3-4l1.5-3l1.5,4.5l4,2.3
		c0,0,2.3,0,5-0.8s3.5-1.3,4.8-1.8s5.3-4.3,5.3-4.3s-1.8-2.8,0-1.3c1.8,1.5,3.8,4.8,3.8,4.8l1.8,2.3l2.3,1.5h8l2.3-0.3
		c0,0,4.8-0.8,4.3,0s-2.8-0.5-3,2.5s-0.3,3-0.3,3l2.3,1.3l5.8,0.3l2.3,0.3l4-0.8c-1.3,2.5-1.5,4-1.5,4v2l1.5,2.5l7.3,2l7.3,1.8
		c0,0,3.8-2.3,2.3,0.3s-1.8,3.8-2.3,5s-0.5,1.3-0.5,1.3l7,4.4c0,0-1,2.1-1.3,3.1s-0.3,1-0.3,1l1.5,4.3l4.3,3
		c-1.5,3.3-3.5,3.8-4.3,5.3s-1.5,1.3-1.3,3.5s3.5,4.3,3.5,4.3s3.8-1.3,0.5,2c-3.3,3.3-3.5,2.8-5,4.5s-1.5-0.8-1.5,1.8s2,9.3,2,9.3
		s1.8-4.5,0.3,2.8s-1.5,7.3-1.5,7.3l-0.8,3.3l-5-1.5l-2.5-1.8l-5.5-4c0,0-1.5,0.3-2.8-3.3s-1.3-3.5-1.3-3.5s-1.8-2.5-2.8-2.8
		s-1.5-1.5-4-0.3s-2.5,1.3-2.5,1.3s1.5-0.8,0,0s-3.5-2.3-4.8-5.3s-1.8-4-1.8-4l-6.5-2.8l-3.5,1l-5,2.5c-1.3,0.8-1.8,0.8-2.5,0.8
		s-0.3-3-3.3,1c-3,4-3,4-3,4l-1.5,1.3c0,0-0.5,1.8-1.5,1.3s-4.8-3.8-4.8-3.8s0-1.5-1.5,0.8s-0.8,1.3-3,3s2-0.3-2.3,1.8s-4.3,2-4.3,2
		s1.8,1.3-2.3-0.5s-6.8-3-6.8-3L93,77.2l-2.8,2.3c-2.8,2.5-5.5,3-5.5,3h-1.3L79,78.9c0,0-1-2-2-2.3s-5.8,0.3-5.8,0.3l-3,1.5
		L60.5,76.7z"/>
</g>
</svg>

