<?xml version="1.0" encoding="utf-8"?>
<!-- Generator: Adobe Illustrator 22.0.0, SVG Export Plug-In . SVG Version: 6.00 Build 0)  -->
<svg id="icon10" version="1.1" xmlns="http://www.w3.org/2000/svg" xmlns:xlink="http://www.w3.org/1999/xlink" x="0px" y="0px"
	 viewBox="0 0 222 281" style="enable-background:new 0 0 222 281;" xml:space="preserve">
<style type="text/css">
	.st0{fill:#939393;}
	.st1{fill:#848484;}
	.st2{fill:#D8D8D8;}

	#icon10:hover .st0{ fill: #c6c6c6; }
	#icon10:hover .st1{ fill: #b7b7b7; }
	#icon10:hover .st2{ fill: #ededed; }

</style>
<g id="lock">
	<path class="st0" d="M32.5,125V67.5c0,0,6-61.5,74.5-67.5h10.5c0,0,57,8,70.5,49.5c0,0,4.5,13,4.5,16.5v59H164l5-7l0.5-52
		c0,0-22.8-46.5-55.7-41c0,0-38.8-6-58.3,41.5l-0.5,54L32.5,125z"/>
</g>
<g id="base_1_">
	<polygon class="st0" points="0,113.5 10.5,105.5 211,105.5 222,113.5 222,267 213.5,281 11.5,281 0,271 	"/>
</g>
<g id="shadow">
	<polygon class="st1" points="0,200.5 222,200.5 222,267 213.5,281 11.5,281 0,271 	"/>
</g>
<g id="key">
	<path class="st2" d="M88.2,185.7c0,0,2-23.7,25.7-24.7h3.7c0,0,19,1.3,22.3,18.7v7.3v4c0,0,1,10.3-10.3,18.3l0.3,48h-27.7v-48.2
		c0,0-11-1.5-14-16.8V185.7z"/>
</g>
</svg>
