<?xml version="1.0" encoding="utf-8"?>
<!-- Generator: Adobe Illustrator 22.0.0, SVG Export Plug-In . SVG Version: 6.00 Build 0)  -->
<svg id="icon2" version="1.1" xmlns="http://www.w3.org/2000/svg" xmlns:xlink="http://www.w3.org/1999/xlink" x="0px" y="0px"
	 viewBox="0 0 275.7 276.7" style="enable-background:new 0 0 275.7 276.7;" xml:space="preserve">
<style type="text/css">
	.st0{fill:#404C7F;}
	.st1{fill:#232B44;}
	.st2{fill:#D3D3D3;}
	.st3{fill:#FFFFFF;}

	#icon2:hover .st0{ fill: #5d6caf; }
	#icon2:hover .st1{ fill: #4b5b8c; }
	#icon2:hover .st2{ fill: #f2f2f2; }
	#icon2:hover .st3{ fill: #FFFFFF; }

</style>
<g id="frame">
	<g id="Layer_3">
		<path class="st0" d="M27,27.1c0,0,60-57.7,136-4.7c0,0,53.3,42.3,22.3,127.3l90.3,92.3v12l-23,22.7h-13l-88.3-91
			c0,0-83.7,42.3-130.7-21.3c0,0-35-53.7-14-111.3C6.7,53.1,17.7,31.7,27,27.1z"/>
	</g>
</g>
<g id="shadow">
	<path class="st1" d="M240.4,267.6l-85.7-87.7h-6.3c0,0-48.3,24.7-82.3,11l10.3-6.3c0,0,29.7,10,67-12l15-1.3l83.3,88.3L240.4,267.6
		z"/>
</g>
<g id="glass">
	<path class="st2" d="M59.6,37.5c0,0,49-31.7,96.3,22.7c0,0,33.3,42.3-11.3,92.7c0,0-49.7,40-101.7-6c0,0-32-57,0-94.3"/>
</g>
<g id="reflect">
	<path class="st3" d="M58.4,39.6c0,0-16,29,0,46.7c0,0,21.3,16,42.7-2c0,0,16-18.7,2-40.3C103.1,43.9,83.4,21.6,58.4,39.6z"/>
</g>
</svg>
